<svg class="Logo__svg" viewBox="0 0 620.63 54.32"><polygon points="54.1 1.26 32.49 1.26 17.91 18.06 17.91 1.26 0 1.26 0 53.06 17.91 53.06 17.91 39 22.13 34.56 33.6 53.06 54.84 53.06 34.19 21.91 54.1 1.26"></polygon><path d="M193.65,269.94,176,321.74H195.2l2.22-8.14h16.29l2.22,8.14h19.24l-17.54-51.8ZM201,300.35l1.77-6.51c.89-3.25,1.71-6.73,2.67-10.95h.07c.82,3.7,2,8.21,2.74,10.95l1.78,6.51Z" transform="translate(-120.24 -268.68)"></path><polygon points="137.27 1.26 118.77 1.26 118.77 53.06 160.95 53.06 160.95 38.11 137.27 38.11 137.27 1.26"></polygon><polygon points="164.79 53.06 208.01 53.06 208.01 40.04 183.3 40.04 183.3 33.15 205.5 33.15 205.5 20.87 183.3 20.87 183.3 14.28 208.01 14.28 208.01 1.26 164.79 1.26 164.79 53.06"></polygon><rect x="213.56" y="1.26" width="18.5" height="51.8"></rect><path d="M382.79,269.94H359v51.8h23.83c18.06,0,28.57-9.77,28.57-25.9S401.29,269.94,382.79,269.94Zm6.66,36.26c-1.77,2-4.59,3-8.58,3h-3.41V283.11h3.41c4.22,0,7.25.82,8.95,3.18,1.56,2.15,2.07,5.33,2.07,9.55C391.89,300.43,391.3,304.13,389.45,306.2Z" transform="translate(-120.24 -268.68)"></path><path d="M442.36,268.68c-18.5,0-28.93,10.58-28.93,27,0,18,10.65,27.31,28.93,27.31s28.79-10.73,28.79-27.31C471.15,279.34,460.72,268.68,442.36,268.68Zm6.81,39.07a8.35,8.35,0,0,1-6.81,2.89,8.27,8.27,0,0,1-6.81-2.89c-1.85-2.29-2.51-7.17-2.51-12.06,0-4.73.59-9.69,2.59-11.91,1.55-1.78,3.77-2.67,6.81-2.67a8.21,8.21,0,0,1,6.66,2.74c1.92,2.22,2.51,7.11,2.51,11.84S451.17,305.39,449.17,307.75Z" transform="translate(-120.24 -268.68)"></path><path d="M501.27,287.85c-5.41-1.11-8.89-1.56-8.89-5,0-2.52,2.23-3.85,5.93-3.85s6.88,1.41,6.88,6.59h19.17c-1.19-13.1-12.88-16.95-26.05-16.95-13.33,0-24.43,5.26-24.43,16.36,0,11.54,8.59,14.72,22.35,17.61,6.59,1.4,10.36,1.92,10.36,5.4s-2.88,4.52-6.58,4.52c-4,0-8.07-1.71-8.07-7.78H472.85c0,13.4,12.13,18.21,27,18.21,12.43,0,25.53-3.7,25.53-16.73C525.39,293.62,515,290.51,501.27,287.85Z" transform="translate(-120.24 -268.68)"></path><path d="M556.1,310.12c-3.48,0-5.7-1.11-7.25-3.11-1.78-2.22-2-6.14-2-11.17,0-4.81.52-8.95,2.22-11.25,1.55-2.07,3.55-3,6.88-3,5.55,0,6.88,3.85,7.33,7.77H583c-2.29-14.21-13.69-20.65-26.49-20.65-18.87,0-29.16,10.88-29.16,27.16,0,17.76,10.81,27.16,29.09,27.16,13.83,0,24.86-7.62,27.08-20.43H563.65C562.91,307.61,561.28,310.12,556.1,310.12Z" transform="translate(-120.24 -268.68)"></path><path d="M613.6,268.68c-18.51,0-28.94,10.58-28.94,27,0,18,10.66,27.31,28.94,27.31s28.78-10.73,28.78-27.31C642.38,279.34,632,268.68,613.6,268.68Zm6.8,39.07a8.34,8.34,0,0,1-6.8,2.89,8.25,8.25,0,0,1-6.81-2.89c-1.85-2.29-2.52-7.17-2.52-12.06,0-4.73.59-9.69,2.59-11.91,1.56-1.78,3.78-2.67,6.81-2.67a8.18,8.18,0,0,1,6.66,2.74c1.92,2.22,2.52,7.11,2.52,11.84S622.4,305.39,620.4,307.75Z" transform="translate(-120.24 -268.68)"></path><path d="M670.28,269.94H645.64v51.8h18.2V306.35h7c12.14,0,23.54-2.37,23.54-18.21C694.41,272.08,682.34,269.94,670.28,269.94Zm-1.7,24.2h-4.74V282.3h4.74c4.22,0,7.4.44,7.4,5.77S672.8,294.14,668.58,294.14Z" transform="translate(-120.24 -268.68)"></path><polygon points="620.63 14.28 620.63 1.26 577.41 1.26 577.41 53.06 620.63 53.06 620.63 40.04 595.91 40.04 595.91 33.15 618.12 33.15 618.12 20.87 595.91 20.87 595.91 14.28 620.63 14.28"></polygon></svg>